<svg width="20" height="18" viewBox="0 0 20 18" fill="none" xmlns="http://www.w3.org/2000/svg">
<path d="M2.25 0.5H17.25C17.7141 0.5 18.1591 0.684507 18.4873 1.0127C18.8155 1.34088 19 1.78587 19 2.25V12.75C19 13.2141 18.8155 13.6591 18.4873 13.9873C18.1591 14.3155 17.7141 14.5 17.25 14.5H10V17H12.75C12.8163 17 12.8799 17.0264 12.9268 17.0732C12.9736 17.1201 13 17.1837 13 17.25C13 17.3163 12.9736 17.3799 12.9268 17.4268C12.8799 17.4736 12.8163 17.5 12.75 17.5H6.75C6.6837 17.5 6.62013 17.4736 6.57324 17.4268C6.52636 17.3799 6.5 17.3163 6.5 17.25C6.5 17.1837 6.52636 17.1201 6.57324 17.0732C6.62013 17.0264 6.6837 17 6.75 17H9.5V14.5H2.25C1.78587 14.5 1.34088 14.3155 1.0127 13.9873C0.684507 13.6591 0.5 13.2141 0.5 12.75V2.25C0.5 1.78587 0.684507 1.34088 1.0127 1.0127C1.34088 0.684507 1.78587 0.5 2.25 0.5ZM1 12.75C1 13.0815 1.13179 13.3994 1.36621 13.6338C1.60063 13.8682 1.91848 14 2.25 14H17.25C17.5815 14 17.8994 13.8682 18.1338 13.6338C18.3682 13.3994 18.5 13.0815 18.5 12.75V10.75H1V12.75ZM2.25 1C1.91848 1 1.60063 1.13179 1.36621 1.36621C1.13179 1.60063 1 1.91848 1 2.25V10.25H18.5V2.25C18.5 1.91848 18.3682 1.60063 18.1338 1.36621C17.8994 1.13179 17.5815 1 17.25 1H2.25Z" fill="#292929" stroke="#525252"/>
</svg>
